<?xml version='1.0' encoding='UTF-8'?>
<svg width="90mm" height="90mm" version="1.1" viewBox="0 0 90 90" xmlns="http://www.w3.org/2000/svg"><path d="M8,8H10V10H8zM10,8H12V10H10zM12,8H14V10H12zM14,8H16V10H14zM16,8H18V10H16zM18,8H20V10H18zM20,8H22V10H20zM24,8H26V10H24zM32,8H34V10H32zM38,8H40V10H38zM42,8H44V10H42zM44,8H46V10H44zM48,8H50V10H48zM50,8H52V10H50zM52,8H54V10H52zM54,8H56V10H54zM56,8H58V10H56zM60,8H62V10H60zM62,8H64V10H62zM68,8H70V10H68zM70,8H72V10H70zM72,8H74V10H72zM74,8H76V10H74zM76,8H78V10H76zM78,8H80V10H78zM80,8H82V10H80zM8,10H10V12H8zM20,10H22V12H20zM26,10H28V12H26zM28,10H30V12H28zM34,10H36V12H34zM36,10H38V12H36zM40,10H42V12H40zM42,10H44V12H42zM44,10H46V12H44zM48,10H50V12H48zM52,10H54V12H52zM56,10H58V12H56zM62,10H64V12H62zM68,10H70V12H68zM80,10H82V12H80zM8,12H10V14H8zM12,12H14V14H12zM14,12H16V14H14zM16,12H18V14H16zM20,12H22V14H20zM28,12H30V14H28zM30,12H32V14H30zM34,12H36V14H34zM36,12H38V14H36zM40,12H42V14H40zM44,12H46V14H44zM50,12H52V14H50zM60,12H62V14H60zM64,12H66V14H64zM68,12H70V14H68zM72,12H74V14H72zM74,12H76V14H74zM76,12H78V14H76zM80,12H82V14H80zM8,14H10V16H8zM12,14H14V16H12zM14,14H16V16H14zM16,14H18V16H16zM20,14H22V16H20zM24,14H26V16H24zM26,14H28V16H26zM34,14H36V16H34zM38,14H40V16H38zM46,14H48V16H46zM48,14H50V16H48zM50,14H52V16H50zM52,14H54V16H52zM60,14H62V16H60zM68,14H70V16H68zM72,14H74V16H72zM74,14H76V16H74zM76,14H78V16H76zM80,14H82V16H80zM8,16H10V18H8zM12,16H14V18H12zM14,16H16V18H14zM16,16H18V18H16zM20,16H22V18H20zM26,16H28V18H26zM30,16H32V18H30zM32,16H34V18H32zM34,16H36V18H34zM36,16H38V18H36zM42,16H44V18H42zM44,16H46V18H44zM46,16H48V18H46zM48,16H50V18H48zM50,16H52V18H50zM58,16H60V18H58zM60,16H62V18H60zM62,16H64V18H62zM64,16H66V18H64zM68,16H70V18H68zM72,16H74V18H72zM74,16H76V18H74zM76,16H78V18H76zM80,16H82V18H80zM8,18H10V20H8zM20,18H22V20H20zM26,18H28V20H26zM30,18H32V20H30zM34,18H36V20H34zM36,18H38V20H36zM38,18H40V20H38zM40,18H42V20H40zM44,18H46V20H44zM48,18H50V20H48zM50,18H52V20H50zM54,18H56V20H54zM56,18H58V20H56zM60,18H62V20H60zM62,18H64V20H62zM64,18H66V20H64zM68,18H70V20H68zM80,18H82V20H80zM8,20H10V22H8zM10,20H12V22H10zM12,20H14V22H12zM14,20H16V22H14zM16,20H18V22H16zM18,20H20V22H18zM20,20H22V22H20zM24,20H26V22H24zM28,20H30V22H28zM32,20H34V22H32zM36,20H38V22H36zM40,20H42V22H40zM44,20H46V22H44zM48,20H50V22H48zM52,20H54V22H52zM56,20H58V22H56zM60,20H62V22H60zM64,20H66V22H64zM68,20H70V22H68zM70,20H72V22H70zM72,20H74V22H72zM74,20H76V22H74zM76,20H78V22H76zM78,20H80V22H78zM80,20H82V22H80zM26,22H28V24H26zM28,22H30V24H28zM40,22H42V24H40zM46,22H48V24H46zM48,22H50V24H48zM52,22H54V24H52zM54,22H56V24H54zM64,22H66V24H64zM12,24H14V26H12zM16,24H18V26H16zM18,24H20V26H18zM20,24H22V26H20zM24,24H26V26H24zM34,24H36V26H34zM40,24H42V26H40zM44,24H46V26H44zM46,24H48V26H46zM48,24H50V26H48zM50,24H52V26H50zM56,24H58V26H56zM62,24H64V26H62zM66,24H68V26H66zM74,24H76V26H74zM80,24H82V26H80zM12,26H14V28H12zM18,26H20V28H18zM28,26H30V28H28zM32,26H34V28H32zM36,26H38V28H36zM38,26H40V28H38zM40,26H42V28H40zM42,26H44V28H42zM54,26H56V28H54zM56,26H58V28H56zM62,26H64V28H62zM66,26H68V28H66zM72,26H74V28H72zM74,26H76V28H74zM78,26H80V28H78zM80,26H82V28H80zM16,28H18V30H16zM18,28H20V30H18zM20,28H22V30H20zM26,28H28V30H26zM28,28H30V30H28zM32,28H34V30H32zM36,28H38V30H36zM38,28H40V30H38zM40,28H42V30H40zM54,28H56V30H54zM56,28H58V30H56zM58,28H60V30H58zM68,28H70V30H68zM74,28H76V30H74zM76,28H78V30H76zM80,28H82V30H80zM8,30H10V32H8zM10,30H12V32H10zM12,30H14V32H12zM14,30H16V32H14zM18,30H20V32H18zM22,30H24V32H22zM30,30H32V32H30zM32,30H34V32H32zM36,30H38V32H36zM38,30H40V32H38zM40,30H42V32H40zM42,30H44V32H42zM44,30H46V32H44zM46,30H48V32H46zM52,30H54V32H52zM58,30H60V32H58zM60,30H62V32H60zM62,30H64V32H62zM66,30H68V32H66zM72,30H74V32H72zM16,32H18V34H16zM20,32H22V34H20zM22,32H24V34H22zM32,32H34V34H32zM34,32H36V34H34zM36,32H38V34H36zM44,32H46V34H44zM48,32H50V34H48zM50,32H52V34H50zM56,32H58V34H56zM58,32H60V34H58zM66,32H68V34H66zM68,32H70V34H68zM74,32H76V34H74zM78,32H80V34H78zM80,32H82V34H80zM10,34H12V36H10zM14,34H16V36H14zM16,34H18V36H16zM22,34H24V36H22zM26,34H28V36H26zM32,34H34V36H32zM36,34H38V36H36zM38,34H40V36H38zM40,34H42V36H40zM52,34H54V36H52zM54,34H56V36H54zM60,34H62V36H60zM64,34H66V36H64zM68,34H70V36H68zM70,34H72V36H70zM74,34H76V36H74zM76,34H78V36H76zM80,34H82V36H80zM8,36H10V38H8zM14,36H16V38H14zM16,36H18V38H16zM20,36H22V38H20zM24,36H26V38H24zM26,36H28V38H26zM28,36H30V38H28zM32,36H34V38H32zM34,36H36V38H34zM36,36H38V38H36zM44,36H46V38H44zM46,36H48V38H46zM48,36H50V38H48zM50,36H52V38H50zM56,36H58V38H56zM60,36H62V38H60zM66,36H68V38H66zM76,36H78V38H76zM78,36H80V38H78zM80,36H82V38H80zM8,38H10V40H8zM12,38H14V40H12zM18,38H20V40H18zM22,38H24V40H22zM24,38H26V40H24zM26,38H28V40H26zM28,38H30V40H28zM32,38H34V40H32zM34,38H36V40H34zM36,38H38V40H36zM46,38H48V40H46zM50,38H52V40H50zM52,38H54V40H52zM54,38H56V40H54zM58,38H60V40H58zM60,38H62V40H60zM62,38H64V40H62zM64,38H66V40H64zM70,38H72V40H70zM78,38H80V40H78zM10,40H12V42H10zM18,40H20V42H18zM20,40H22V42H20zM26,40H28V42H26zM28,40H30V42H28zM30,40H32V42H30zM32,40H34V42H32zM36,40H38V42H36zM38,40H40V42H38zM40,40H42V42H40zM42,40H44V42H42zM44,40H46V42H44zM46,40H48V42H46zM48,40H50V42H48zM54,40H56V42H54zM56,40H58V42H56zM58,40H60V42H58zM64,40H66V42H64zM66,40H68V42H66zM68,40H70V42H68zM74,40H76V42H74zM78,40H80V42H78zM80,40H82V42H80zM8,42H10V44H8zM14,42H16V44H14zM24,42H26V44H24zM26,42H28V44H26zM30,42H32V44H30zM34,42H36V44H34zM38,42H40V44H38zM44,42H46V44H44zM50,42H52V44H50zM52,42H54V44H52zM56,42H58V44H56zM58,42H60V44H58zM64,42H66V44H64zM68,42H70V44H68zM70,42H72V44H70zM74,42H76V44H74zM76,42H78V44H76zM78,42H80V44H78zM80,42H82V44H80zM10,44H12V46H10zM14,44H16V46H14zM18,44H20V46H18zM20,44H22V46H20zM22,44H24V46H22zM24,44H26V46H24zM26,44H28V46H26zM32,44H34V46H32zM34,44H36V46H34zM36,44H38V46H36zM38,44H40V46H38zM42,44H44V46H42zM44,44H46V46H44zM46,44H48V46H46zM50,44H52V46H50zM58,44H60V46H58zM60,44H62V46H60zM66,44H68V46H66zM70,44H72V46H70zM72,44H74V46H72zM74,44H76V46H74zM76,44H78V46H76zM78,44H80V46H78zM80,44H82V46H80zM8,46H10V48H8zM18,46H20V48H18zM24,46H26V48H24zM30,46H32V48H30zM32,46H34V48H32zM40,46H42V48H40zM42,46H44V48H42zM44,46H46V48H44zM46,46H48V48H46zM50,46H52V48H50zM54,46H56V48H54zM56,46H58V48H56zM58,46H60V48H58zM60,46H62V48H60zM62,46H64V48H62zM64,46H66V48H64zM66,46H68V48H66zM68,46H70V48H68zM72,46H74V48H72zM78,46H80V48H78zM8,48H10V50H8zM12,48H14V50H12zM14,48H16V50H14zM16,48H18V50H16zM20,48H22V50H20zM22,48H24V50H22zM24,48H26V50H24zM34,48H36V50H34zM36,48H38V50H36zM46,48H48V50H46zM48,48H50V50H48zM52,48H54V50H52zM54,48H56V50H54zM56,48H58V50H56zM58,48H60V50H58zM64,48H66V50H64zM66,48H68V50H66zM68,48H70V50H68zM70,48H72V50H70zM78,48H80V50H78zM80,48H82V50H80zM8,50H10V52H8zM14,50H16V52H14zM18,50H20V52H18zM30,50H32V52H30zM38,50H40V52H38zM42,50H44V52H42zM44,50H46V52H44zM52,50H54V52H52zM54,50H56V52H54zM56,50H58V52H56zM58,50H60V52H58zM68,50H70V52H68zM76,50H78V52H76zM78,50H80V52H78zM80,50H82V52H80zM18,52H20V54H18zM20,52H22V54H20zM24,52H26V54H24zM26,52H28V54H26zM28,52H30V54H28zM30,52H32V54H30zM34,52H36V54H34zM40,52H42V54H40zM42,52H44V54H42zM44,52H46V54H44zM48,52H50V54H48zM54,52H56V54H54zM60,52H62V54H60zM64,52H66V54H64zM68,52H70V54H68zM72,52H74V54H72zM74,52H76V54H74zM76,52H78V54H76zM78,52H80V54H78zM80,52H82V54H80zM10,54H12V56H10zM14,54H16V56H14zM18,54H20V56H18zM24,54H26V56H24zM26,54H28V56H26zM28,54H30V56H28zM36,54H38V56H36zM44,54H46V56H44zM48,54H50V56H48zM50,54H52V56H50zM52,54H54V56H52zM58,54H60V56H58zM60,54H62V56H60zM78,54H80V56H78zM80,54H82V56H80zM10,56H12V58H10zM12,56H14V58H12zM16,56H18V58H16zM20,56H22V58H20zM22,56H24V58H22zM26,56H28V58H26zM32,56H34V58H32zM36,56H38V58H36zM40,56H42V58H40zM42,56H44V58H42zM44,56H46V58H44zM46,56H48V58H46zM50,56H52V58H50zM54,56H56V58H54zM60,56H62V58H60zM62,56H64V58H62zM64,56H66V58H64zM68,56H70V58H68zM72,56H74V58H72zM74,56H76V58H74zM78,56H80V58H78zM10,58H12V60H10zM12,58H14V60H12zM16,58H18V60H16zM18,58H20V60H18zM22,58H24V60H22zM32,58H34V60H32zM36,58H38V60H36zM40,58H42V60H40zM46,58H48V60H46zM52,58H54V60H52zM54,58H56V60H54zM58,58H60V60H58zM60,58H62V60H60zM62,58H64V60H62zM64,58H66V60H64zM70,58H72V60H70zM74,58H76V60H74zM78,58H80V60H78zM80,58H82V60H80zM8,60H10V62H8zM20,60H22V62H20zM22,60H24V62H22zM24,60H26V62H24zM26,60H28V62H26zM28,60H30V62H28zM30,60H32V62H30zM36,60H38V62H36zM38,60H40V62H38zM40,60H42V62H40zM44,60H46V62H44zM58,60H60V62H58zM60,60H62V62H60zM62,60H64V62H62zM64,60H66V62H64zM68,60H70V62H68zM72,60H74V62H72zM76,60H78V62H76zM78,60H80V62H78zM80,60H82V62H80zM10,62H12V64H10zM12,62H14V64H12zM14,62H16V64H14zM16,62H18V64H16zM18,62H20V64H18zM22,62H24V64H22zM24,62H26V64H24zM30,62H32V64H30zM34,62H36V64H34zM38,62H40V64H38zM46,62H48V64H46zM48,62H50V64H48zM50,62H52V64H50zM52,62H54V64H52zM54,62H56V64H54zM58,62H60V64H58zM60,62H62V64H60zM64,62H66V64H64zM68,62H70V64H68zM70,62H72V64H70zM78,62H80V64H78zM8,64H10V66H8zM12,64H14V66H12zM14,64H16V66H14zM16,64H18V66H16zM20,64H22V66H20zM22,64H24V66H22zM24,64H26V66H24zM30,64H32V66H30zM32,64H34V66H32zM34,64H36V66H34zM40,64H42V66H40zM42,64H44V66H42zM44,64H46V66H44zM50,64H52V66H50zM52,64H54V66H52zM56,64H58V66H56zM58,64H60V66H58zM62,64H64V66H62zM64,64H66V66H64zM66,64H68V66H66zM68,64H70V66H68zM70,64H72V66H70zM72,64H74V66H72zM74,64H76V66H74zM78,64H80V66H78zM24,66H26V68H24zM26,66H28V68H26zM32,66H34V68H32zM38,66H40V68H38zM40,66H42V68H40zM44,66H46V68H44zM48,66H50V68H48zM50,66H52V68H50zM52,66H54V68H52zM58,66H60V68H58zM62,66H64V68H62zM64,66H66V68H64zM72,66H74V68H72zM80,66H82V68H80zM8,68H10V70H8zM10,68H12V70H10zM12,68H14V70H12zM14,68H16V70H14zM16,68H18V70H16zM18,68H20V70H18zM20,68H22V70H20zM26,68H28V70H26zM28,68H30V70H28zM32,68H34V70H32zM42,68H44V70H42zM44,68H46V70H44zM46,68H48V70H46zM52,68H54V70H52zM56,68H58V70H56zM58,68H60V70H58zM60,68H62V70H60zM62,68H64V70H62zM64,68H66V70H64zM68,68H70V70H68zM72,68H74V70H72zM76,68H78V70H76zM78,68H80V70H78zM80,68H82V70H80zM8,70H10V72H8zM20,70H22V72H20zM24,70H26V72H24zM26,70H28V72H26zM28,70H30V72H28zM30,70H32V72H30zM34,70H36V72H34zM36,70H38V72H36zM38,70H40V72H38zM42,70H44V72H42zM44,70H46V72H44zM48,70H50V72H48zM50,70H52V72H50zM52,70H54V72H52zM54,70H56V72H54zM56,70H58V72H56zM58,70H60V72H58zM60,70H62V72H60zM64,70H66V72H64zM72,70H74V72H72zM8,72H10V74H8zM12,72H14V74H12zM14,72H16V74H14zM16,72H18V74H16zM20,72H22V74H20zM24,72H26V74H24zM26,72H28V74H26zM28,72H30V74H28zM30,72H32V74H30zM32,72H34V74H32zM36,72H38V74H36zM44,72H46V74H44zM50,72H52V74H50zM52,72H54V74H52zM54,72H56V74H54zM56,72H58V74H56zM58,72H60V74H58zM64,72H66V74H64zM66,72H68V74H66zM68,72H70V74H68zM70,72H72V74H70zM72,72H74V74H72zM74,72H76V74H74zM80,72H82V74H80zM8,74H10V76H8zM12,74H14V76H12zM14,74H16V76H14zM16,74H18V76H16zM20,74H22V76H20zM26,74H28V76H26zM32,74H34V76H32zM38,74H40V76H38zM42,74H44V76H42zM44,74H46V76H44zM48,74H50V76H48zM52,74H54V76H52zM54,74H56V76H54zM56,74H58V76H56zM58,74H60V76H58zM62,74H64V76H62zM64,74H66V76H64zM66,74H68V76H66zM72,74H74V76H72zM74,74H76V76H74zM78,74H80V76H78zM80,74H82V76H80zM8,76H10V78H8zM12,76H14V78H12zM14,76H16V78H14zM16,76H18V78H16zM20,76H22V78H20zM24,76H26V78H24zM30,76H32V78H30zM34,76H36V78H34zM38,76H40V78H38zM48,76H50V78H48zM50,76H52V78H50zM54,76H56V78H54zM56,76H58V78H56zM62,76H64V78H62zM64,76H66V78H64zM66,76H68V78H66zM70,76H72V78H70zM72,76H74V78H72zM74,76H76V78H74zM76,76H78V78H76zM80,76H82V78H80zM8,78H10V80H8zM20,78H22V80H20zM26,78H28V80H26zM34,78H36V80H34zM36,78H38V80H36zM42,78H44V80H42zM46,78H48V80H46zM48,78H50V80H48zM52,78H54V80H52zM56,78H58V80H56zM58,78H60V80H58zM60,78H62V80H60zM62,78H64V80H62zM64,78H66V80H64zM78,78H80V80H78zM8,80H10V82H8zM10,80H12V82H10zM12,80H14V82H12zM14,80H16V82H14zM16,80H18V82H16zM18,80H20V82H18zM20,80H22V82H20zM30,80H32V82H30zM32,80H34V82H32zM36,80H38V82H36zM42,80H44V82H42zM44,80H46V82H44zM52,80H54V82H52zM54,80H56V82H54zM56,80H58V82H56zM58,80H60V82H58zM62,80H64V82H62zM64,80H66V82H64zM72,80H74V82H72zM78,80H80V82H78zM80,80H82V82H80z" id="qr-path" fill="#000000" fill-opacity="1" fill-rule="nonzero" stroke="none" /></svg>