<?xml version='1.0' encoding='UTF-8'?>
<svg width="90mm" height="90mm" version="1.1" viewBox="0 0 90 90" xmlns="http://www.w3.org/2000/svg"><path d="M8,8H10V10H8zM10,8H12V10H10zM12,8H14V10H12zM14,8H16V10H14zM16,8H18V10H16zM18,8H20V10H18zM20,8H22V10H20zM24,8H26V10H24zM26,8H28V10H26zM28,8H30V10H28zM30,8H32V10H30zM32,8H34V10H32zM38,8H40V10H38zM44,8H46V10H44zM52,8H54V10H52zM56,8H58V10H56zM64,8H66V10H64zM68,8H70V10H68zM70,8H72V10H70zM72,8H74V10H72zM74,8H76V10H74zM76,8H78V10H76zM78,8H80V10H78zM80,8H82V10H80zM8,10H10V12H8zM20,10H22V12H20zM24,10H26V12H24zM30,10H32V12H30zM32,10H34V12H32zM36,10H38V12H36zM38,10H40V12H38zM42,10H44V12H42zM44,10H46V12H44zM52,10H54V12H52zM58,10H60V12H58zM62,10H64V12H62zM68,10H70V12H68zM80,10H82V12H80zM8,12H10V14H8zM12,12H14V14H12zM14,12H16V14H14zM16,12H18V14H16zM20,12H22V14H20zM24,12H26V14H24zM28,12H30V14H28zM30,12H32V14H30zM36,12H38V14H36zM40,12H42V14H40zM44,12H46V14H44zM52,12H54V14H52zM54,12H56V14H54zM56,12H58V14H56zM60,12H62V14H60zM64,12H66V14H64zM68,12H70V14H68zM72,12H74V14H72zM74,12H76V14H74zM76,12H78V14H76zM80,12H82V14H80zM8,14H10V16H8zM12,14H14V16H12zM14,14H16V16H14zM16,14H18V16H16zM20,14H22V16H20zM26,14H28V16H26zM38,14H40V16H38zM40,14H42V16H40zM42,14H44V16H42zM44,14H46V16H44zM50,14H52V16H50zM54,14H56V16H54zM56,14H58V16H56zM58,14H60V16H58zM60,14H62V16H60zM68,14H70V16H68zM72,14H74V16H72zM74,14H76V16H74zM76,14H78V16H76zM80,14H82V16H80zM8,16H10V18H8zM12,16H14V18H12zM14,16H16V18H14zM16,16H18V18H16zM20,16H22V18H20zM26,16H28V18H26zM30,16H32V18H30zM32,16H34V18H32zM40,16H42V18H40zM42,16H44V18H42zM44,16H46V18H44zM50,16H52V18H50zM54,16H56V18H54zM56,16H58V18H56zM58,16H60V18H58zM68,16H70V18H68zM72,16H74V18H72zM74,16H76V18H74zM76,16H78V18H76zM80,16H82V18H80zM8,18H10V20H8zM20,18H22V20H20zM24,18H26V20H24zM28,18H30V20H28zM32,18H34V20H32zM36,18H38V20H36zM38,18H40V20H38zM40,18H42V20H40zM42,18H44V20H42zM44,18H46V20H44zM48,18H50V20H48zM50,18H52V20H50zM58,18H60V20H58zM60,18H62V20H60zM62,18H64V20H62zM64,18H66V20H64zM68,18H70V20H68zM80,18H82V20H80zM8,20H10V22H8zM10,20H12V22H10zM12,20H14V22H12zM14,20H16V22H14zM16,20H18V22H16zM18,20H20V22H18zM20,20H22V22H20zM24,20H26V22H24zM28,20H30V22H28zM32,20H34V22H32zM36,20H38V22H36zM40,20H42V22H40zM44,20H46V22H44zM48,20H50V22H48zM52,20H54V22H52zM56,20H58V22H56zM60,20H62V22H60zM64,20H66V22H64zM68,20H70V22H68zM70,20H72V22H70zM72,20H74V22H72zM74,20H76V22H74zM76,20H78V22H76zM78,20H80V22H78zM80,20H82V22H80zM24,22H26V24H24zM28,22H30V24H28zM34,22H36V24H34zM38,22H40V24H38zM42,22H44V24H42zM44,22H46V24H44zM46,22H48V24H46zM48,22H50V24H48zM52,22H54V24H52zM54,22H56V24H54zM58,22H60V24H58zM64,22H66V24H64zM12,24H14V26H12zM14,24H16V26H14zM16,24H18V26H16zM20,24H22V26H20zM24,24H26V26H24zM40,24H42V26H40zM42,24H44V26H42zM44,24H46V26H44zM56,24H58V26H56zM60,24H62V26H60zM66,24H68V26H66zM68,24H70V26H68zM70,24H72V26H70zM76,24H78V26H76zM78,24H80V26H78zM80,24H82V26H80zM10,26H12V28H10zM24,26H26V28H24zM26,26H28V28H26zM28,26H30V28H28zM30,26H32V28H30zM32,26H34V28H32zM36,26H38V28H36zM38,26H40V28H38zM44,26H46V28H44zM48,26H50V28H48zM50,26H52V28H50zM58,26H60V28H58zM62,26H64V28H62zM70,26H72V28H70zM74,26H76V28H74zM78,26H80V28H78zM8,28H10V30H8zM16,28H18V30H16zM20,28H22V30H20zM22,28H24V30H22zM24,28H26V30H24zM26,28H28V30H26zM28,28H30V30H28zM30,28H32V30H30zM32,28H34V30H32zM36,28H38V30H36zM42,28H44V30H42zM46,28H48V30H46zM50,28H52V30H50zM52,28H54V30H52zM54,28H56V30H54zM58,28H60V30H58zM60,28H62V30H60zM62,28H64V30H62zM64,28H66V30H64zM68,28H70V30H68zM72,28H74V30H72zM76,28H78V30H76zM78,28H80V30H78zM80,28H82V30H80zM8,30H10V32H8zM14,30H16V32H14zM26,30H28V32H26zM30,30H32V32H30zM34,30H36V32H34zM36,30H38V32H36zM38,30H40V32H38zM40,30H42V32H40zM46,30H48V32H46zM48,30H50V32H48zM50,30H52V32H50zM54,30H56V32H54zM60,30H62V32H60zM64,30H66V32H64zM68,30H70V32H68zM70,30H72V32H70zM72,30H74V32H72zM80,30H82V32H80zM12,32H14V34H12zM18,32H20V34H18zM20,32H22V34H20zM28,32H30V34H28zM30,32H32V34H30zM34,32H36V34H34zM36,32H38V34H36zM40,32H42V34H40zM44,32H46V34H44zM48,32H50V34H48zM50,32H52V34H50zM52,32H54V34H52zM54,32H56V34H54zM56,32H58V34H56zM60,32H62V34H60zM66,32H68V34H66zM68,32H70V34H68zM72,32H74V34H72zM74,32H76V34H74zM76,32H78V34H76zM10,34H12V36H10zM14,34H16V36H14zM18,34H20V36H18zM32,34H34V36H32zM38,34H40V36H38zM40,34H42V36H40zM42,34H44V36H42zM44,34H46V36H44zM46,34H48V36H46zM48,34H50V36H48zM50,34H52V36H50zM52,34H54V36H52zM54,34H56V36H54zM56,34H58V36H56zM60,34H62V36H60zM64,34H66V36H64zM66,34H68V36H66zM70,34H72V36H70zM74,34H76V36H74zM76,34H78V36H76zM78,34H80V36H78zM8,36H10V38H8zM10,36H12V38H10zM12,36H14V38H12zM18,36H20V38H18zM20,36H22V38H20zM22,36H24V38H22zM28,36H30V38H28zM32,36H34V38H32zM34,36H36V38H34zM36,36H38V38H36zM38,36H40V38H38zM42,36H44V38H42zM44,36H46V38H44zM46,36H48V38H46zM48,36H50V38H48zM50,36H52V38H50zM52,36H54V38H52zM54,36H56V38H54zM58,36H60V38H58zM60,36H62V38H60zM62,36H64V38H62zM64,36H66V38H64zM68,36H70V38H68zM72,36H74V38H72zM74,36H76V38H74zM78,36H80V38H78zM80,36H82V38H80zM8,38H10V40H8zM10,38H12V40H10zM12,38H14V40H12zM14,38H16V40H14zM16,38H18V40H16zM22,38H24V40H22zM24,38H26V40H24zM30,38H32V40H30zM36,38H38V40H36zM40,38H42V40H40zM44,38H46V40H44zM46,38H48V40H46zM50,38H52V40H50zM54,38H56V40H54zM56,38H58V40H56zM60,38H62V40H60zM64,38H66V40H64zM68,38H70V40H68zM70,38H72V40H70zM72,38H74V40H72zM80,38H82V40H80zM10,40H12V42H10zM14,40H16V42H14zM20,40H22V42H20zM24,40H26V42H24zM26,40H28V42H26zM30,40H32V42H30zM34,40H36V42H34zM38,40H40V42H38zM40,40H42V42H40zM42,40H44V42H42zM46,40H48V42H46zM50,40H52V42H50zM52,40H54V42H52zM54,40H56V42H54zM58,40H60V42H58zM60,40H62V42H60zM68,40H70V42H68zM70,40H72V42H70zM72,40H74V42H72zM76,40H78V42H76zM78,40H80V42H78zM80,40H82V42H80zM8,42H10V44H8zM14,42H16V44H14zM18,42H20V44H18zM22,42H24V44H22zM24,42H26V44H24zM26,42H28V44H26zM30,42H32V44H30zM34,42H36V44H34zM40,42H42V44H40zM44,42H46V44H44zM48,42H50V44H48zM54,42H56V44H54zM66,42H68V44H66zM70,42H72V44H70zM74,42H76V44H74zM76,42H78V44H76zM8,44H10V46H8zM10,44H12V46H10zM12,44H14V46H12zM14,44H16V46H14zM16,44H18V46H16zM20,44H22V46H20zM32,44H34V46H32zM34,44H36V46H34zM36,44H38V46H36zM40,44H42V46H40zM46,44H48V46H46zM54,44H56V46H54zM62,44H64V46H62zM70,44H72V46H70zM78,44H80V46H78zM80,44H82V46H80zM8,46H10V48H8zM16,46H18V48H16zM22,46H24V48H22zM26,46H28V48H26zM28,46H30V48H28zM30,46H32V48H30zM36,46H38V48H36zM38,46H40V48H38zM40,46H42V48H40zM42,46H44V48H42zM48,46H50V48H48zM50,46H52V48H50zM52,46H54V48H52zM54,46H56V48H54zM60,46H62V48H60zM66,46H68V48H66zM68,46H70V48H68zM70,46H72V48H70zM72,46H74V48H72zM80,46H82V48H80zM14,48H16V50H14zM16,48H18V50H16zM18,48H20V50H18zM20,48H22V50H20zM26,48H28V50H26zM28,48H30V50H28zM30,48H32V50H30zM32,48H34V50H32zM34,48H36V50H34zM44,48H46V50H44zM46,48H48V50H46zM48,48H50V50H48zM52,48H54V50H52zM58,48H60V50H58zM60,48H62V50H60zM62,48H64V50H62zM66,48H68V50H66zM68,48H70V50H68zM70,48H72V50H70zM72,48H74V50H72zM74,48H76V50H74zM76,48H78V50H76zM8,50H10V52H8zM10,50H12V52H10zM12,50H14V52H12zM16,50H18V52H16zM22,50H24V52H22zM30,50H32V52H30zM32,50H34V52H32zM34,50H36V52H34zM36,50H38V52H36zM38,50H40V52H38zM42,50H44V52H42zM44,50H46V52H44zM50,50H52V52H50zM52,50H54V52H52zM54,50H56V52H54zM60,50H62V52H60zM70,50H72V52H70zM8,52H10V54H8zM12,52H14V54H12zM18,52H20V54H18zM20,52H22V54H20zM22,52H24V54H22zM26,52H28V54H26zM30,52H32V54H30zM32,52H34V54H32zM34,52H36V54H34zM40,52H42V54H40zM44,52H46V54H44zM46,52H48V54H46zM48,52H50V54H48zM50,52H52V54H50zM62,52H64V54H62zM66,52H68V54H66zM68,52H70V54H68zM78,52H80V54H78zM80,52H82V54H80zM10,54H12V56H10zM24,54H26V56H24zM30,54H32V56H30zM32,54H34V56H32zM36,54H38V56H36zM40,54H42V56H40zM44,54H46V56H44zM46,54H48V56H46zM50,54H52V56H50zM52,54H54V56H52zM60,54H62V56H60zM66,54H68V56H66zM68,54H70V56H68zM70,54H72V56H70zM78,54H80V56H78zM8,56H10V58H8zM12,56H14V58H12zM14,56H16V58H14zM18,56H20V58H18zM20,56H22V58H20zM22,56H24V58H22zM24,56H26V58H24zM28,56H30V58H28zM30,56H32V58H30zM32,56H34V58H32zM36,56H38V58H36zM38,56H40V58H38zM40,56H42V58H40zM42,56H44V58H42zM44,56H46V58H44zM50,56H52V58H50zM54,56H56V58H54zM66,56H68V58H66zM68,56H70V58H68zM72,56H74V58H72zM74,56H76V58H74zM76,56H78V58H76zM80,56H82V58H80zM8,58H10V60H8zM12,58H14V60H12zM24,58H26V60H24zM26,58H28V60H26zM34,58H36V60H34zM38,58H40V60H38zM40,58H42V60H40zM42,58H44V60H42zM56,58H58V60H56zM60,58H62V60H60zM66,58H68V60H66zM70,58H72V60H70zM74,58H76V60H74zM8,60H10V62H8zM12,60H14V62H12zM20,60H22V62H20zM22,60H24V62H22zM24,60H26V62H24zM30,60H32V62H30zM34,60H36V62H34zM38,60H40V62H38zM44,60H46V62H44zM48,60H50V62H48zM52,60H54V62H52zM58,60H60V62H58zM62,60H64V62H62zM68,60H70V62H68zM72,60H74V62H72zM78,60H80V62H78zM80,60H82V62H80zM8,62H10V64H8zM12,62H14V64H12zM14,62H16V64H14zM16,62H18V64H16zM18,62H20V64H18zM24,62H26V64H24zM32,62H34V64H32zM34,62H36V64H34zM38,62H40V64H38zM40,62H42V64H40zM42,62H44V64H42zM50,62H52V64H50zM56,62H58V64H56zM60,62H62V64H60zM66,62H68V64H66zM70,62H72V64H70zM72,62H74V64H72zM80,62H82V64H80zM8,64H10V66H8zM14,64H16V66H14zM16,64H18V66H16zM18,64H20V66H18zM20,64H22V66H20zM24,64H26V66H24zM26,64H28V66H26zM30,64H32V66H30zM36,64H38V66H36zM38,64H40V66H38zM40,64H42V66H40zM42,64H44V66H42zM44,64H46V66H44zM48,64H50V66H48zM52,64H54V66H52zM58,64H60V66H58zM60,64H62V66H60zM62,64H64V66H62zM64,64H66V66H64zM66,64H68V66H66zM68,64H70V66H68zM70,64H72V66H70zM72,64H74V66H72zM74,64H76V66H74zM76,64H78V66H76zM78,64H80V66H78zM80,64H82V66H80zM24,66H26V68H24zM36,66H38V68H36zM44,66H46V68H44zM46,66H48V68H46zM54,66H56V68H54zM58,66H60V68H58zM62,66H64V68H62zM64,66H66V68H64zM72,66H74V68H72zM78,66H80V68H78zM8,68H10V70H8zM10,68H12V70H10zM12,68H14V70H12zM14,68H16V70H14zM16,68H18V70H16zM18,68H20V70H18zM20,68H22V70H20zM26,68H28V70H26zM32,68H34V70H32zM34,68H36V70H34zM36,68H38V70H36zM38,68H40V70H38zM42,68H44V70H42zM44,68H46V70H44zM46,68H48V70H46zM50,68H52V70H50zM52,68H54V70H52zM64,68H66V70H64zM68,68H70V70H68zM72,68H74V70H72zM74,68H76V70H74zM78,68H80V70H78zM80,68H82V70H80zM8,70H10V72H8zM20,70H22V72H20zM28,70H30V72H28zM30,70H32V72H30zM32,70H34V72H32zM34,70H36V72H34zM36,70H38V72H36zM38,70H40V72H38zM40,70H42V72H40zM42,70H44V72H42zM44,70H46V72H44zM46,70H48V72H46zM48,70H50V72H48zM60,70H62V72H60zM62,70H64V72H62zM64,70H66V72H64zM72,70H74V72H72zM78,70H80V72H78zM80,70H82V72H80zM8,72H10V74H8zM12,72H14V74H12zM14,72H16V74H14zM16,72H18V74H16zM20,72H22V74H20zM24,72H26V74H24zM26,72H28V74H26zM36,72H38V74H36zM38,72H40V74H38zM40,72H42V74H40zM46,72H48V74H46zM52,72H54V74H52zM54,72H56V74H54zM56,72H58V74H56zM58,72H60V74H58zM60,72H62V74H60zM62,72H64V74H62zM64,72H66V74H64zM66,72H68V74H66zM68,72H70V74H68zM70,72H72V74H70zM72,72H74V74H72zM76,72H78V74H76zM80,72H82V74H80zM8,74H10V76H8zM12,74H14V76H12zM14,74H16V76H14zM16,74H18V76H16zM20,74H22V76H20zM24,74H26V76H24zM26,74H28V76H26zM28,74H30V76H28zM32,74H34V76H32zM34,74H36V76H34zM36,74H38V76H36zM46,74H48V76H46zM50,74H52V76H50zM52,74H54V76H52zM60,74H62V76H60zM64,74H66V76H64zM68,74H70V76H68zM72,74H74V76H72zM74,74H76V76H74zM8,76H10V78H8zM12,76H14V78H12zM14,76H16V78H14zM16,76H18V78H16zM20,76H22V78H20zM24,76H26V78H24zM28,76H30V78H28zM36,76H38V78H36zM42,76H44V78H42zM50,76H52V78H50zM54,76H56V78H54zM56,76H58V78H56zM58,76H60V78H58zM64,76H66V78H64zM66,76H68V78H66zM80,76H82V78H80zM8,78H10V80H8zM20,78H22V80H20zM28,78H30V80H28zM34,78H36V80H34zM36,78H38V80H36zM42,78H44V80H42zM46,78H48V80H46zM50,78H52V80H50zM52,78H54V80H52zM54,78H56V80H54zM64,78H66V80H64zM68,78H70V80H68zM72,78H74V80H72zM80,78H82V80H80zM8,80H10V82H8zM10,80H12V82H10zM12,80H14V82H12zM14,80H16V82H14zM16,80H18V82H16zM18,80H20V82H18zM20,80H22V82H20zM26,80H28V82H26zM30,80H32V82H30zM32,80H34V82H32zM38,80H40V82H38zM42,80H44V82H42zM44,80H46V82H44zM46,80H48V82H46zM54,80H56V82H54zM56,80H58V82H56zM58,80H60V82H58zM62,80H64V82H62zM66,80H68V82H66zM74,80H76V82H74zM76,80H78V82H76zM78,80H80V82H78zM80,80H82V82H80z" id="qr-path" fill="#000000" fill-opacity="1" fill-rule="nonzero" stroke="none" /></svg>