<?xml version='1.0' encoding='utf-8'?>
<svg xmlns="http://www.w3.org/2000/svg" viewBox="0 0 170 270" width="170px" height="270px"><rect x="0" y="0" width="170" height="270" fill="white" /><rect x="4" y="4" width="162" height="262" fill="none" stroke="black" stroke-width="4" /><rect x="12" y="12" width="146" height="246" fill="none" stroke="black" stroke-width="2.0" /><g transform="translate(40, 40)"><path d="M8,8H10V10H8zM10,8H12V10H10zM12,8H14V10H12zM14,8H16V10H14zM16,8H18V10H16zM18,8H20V10H18zM20,8H22V10H20zM24,8H26V10H24zM26,8H28V10H26zM28,8H30V10H28zM30,8H32V10H30zM32,8H34V10H32zM34,8H36V10H34zM38,8H40V10H38zM42,8H44V10H42zM44,8H46V10H44zM48,8H50V10H48zM50,8H52V10H50zM52,8H54V10H52zM54,8H56V10H54zM56,8H58V10H56zM58,8H60V10H58zM60,8H62V10H60zM62,8H64V10H62zM68,8H70V10H68zM70,8H72V10H70zM72,8H74V10H72zM74,8H76V10H74zM76,8H78V10H76zM78,8H80V10H78zM80,8H82V10H80zM8,10H10V12H8zM20,10H22V12H20zM24,10H26V12H24zM26,10H28V12H26zM28,10H30V12H28zM30,10H32V12H30zM32,10H34V12H32zM34,10H36V12H34zM38,10H40V12H38zM40,10H42V12H40zM42,10H44V12H42zM46,10H48V12H46zM48,10H50V12H48zM50,10H52V12H50zM56,10H58V12H56zM62,10H64V12H62zM64,10H66V12H64zM68,10H70V12H68zM80,10H82V12H80zM8,12H10V14H8zM12,12H14V14H12zM14,12H16V14H14zM16,12H18V14H16zM20,12H22V14H20zM26,12H28V14H26zM28,12H30V14H28zM30,12H32V14H30zM32,12H34V14H32zM34,12H36V14H34zM36,12H38V14H36zM42,12H44V14H42zM44,12H46V14H44zM54,12H56V14H54zM60,12H62V14H60zM68,12H70V14H68zM72,12H74V14H72zM74,12H76V14H74zM76,12H78V14H76zM80,12H82V14H80zM8,14H10V16H8zM12,14H14V16H12zM14,14H16V16H14zM16,14H18V16H16zM20,14H22V16H20zM24,14H26V16H24zM26,14H28V16H26zM28,14H30V16H28zM32,14H34V16H32zM34,14H36V16H34zM36,14H38V16H36zM42,14H44V16H42zM48,14H50V16H48zM52,14H54V16H52zM54,14H56V16H54zM60,14H62V16H60zM62,14H64V16H62zM68,14H70V16H68zM72,14H74V16H72zM74,14H76V16H74zM76,14H78V16H76zM80,14H82V16H80zM8,16H10V18H8zM12,16H14V18H12zM14,16H16V18H14zM16,16H18V18H16zM20,16H22V18H20zM24,16H26V18H24zM26,16H28V18H26zM28,16H30V18H28zM30,16H32V18H30zM38,16H40V18H38zM40,16H42V18H40zM44,16H46V18H44zM46,16H48V18H46zM48,16H50V18H48zM50,16H52V18H50zM52,16H54V18H52zM54,16H56V18H54zM58,16H60V18H58zM60,16H62V18H60zM62,16H64V18H62zM68,16H70V18H68zM72,16H74V18H72zM74,16H76V18H74zM76,16H78V18H76zM80,16H82V18H80zM8,18H10V20H8zM20,18H22V20H20zM24,18H26V20H24zM26,18H28V20H26zM30,18H32V20H30zM34,18H36V20H34zM36,18H38V20H36zM40,18H42V20H40zM44,18H46V20H44zM46,18H48V20H46zM54,18H56V20H54zM58,18H60V20H58zM62,18H64V20H62zM64,18H66V20H64zM68,18H70V20H68zM80,18H82V20H80zM8,20H10V22H8zM10,20H12V22H10zM12,20H14V22H12zM14,20H16V22H14zM16,20H18V22H16zM18,20H20V22H18zM20,20H22V22H20zM24,20H26V22H24zM28,20H30V22H28zM32,20H34V22H32zM36,20H38V22H36zM40,20H42V22H40zM44,20H46V22H44zM48,20H50V22H48zM52,20H54V22H52zM56,20H58V22H56zM60,20H62V22H60zM64,20H66V22H64zM68,20H70V22H68zM70,20H72V22H70zM72,20H74V22H72zM74,20H76V22H74zM76,20H78V22H76zM78,20H80V22H78zM80,20H82V22H80zM26,22H28V24H26zM28,22H30V24H28zM30,22H32V24H30zM32,22H34V24H32zM42,22H44V24H42zM44,22H46V24H44zM46,22H48V24H46zM48,22H50V24H48zM50,22H52V24H50zM52,22H54V24H52zM54,22H56V24H54zM56,22H58V24H56zM60,22H62V24H60zM14,24H16V26H14zM20,24H22V26H20zM26,24H28V26H26zM30,24H32V26H30zM32,24H34V26H32zM40,24H42V26H40zM42,24H44V26H42zM46,24H48V26H46zM52,24H54V26H52zM58,24H60V26H58zM60,24H62V26H60zM62,24H64V26H62zM64,24H66V26H64zM70,24H72V26H70zM72,24H74V26H72zM74,24H76V26H74zM78,24H80V26H78zM80,24H82V26H80zM10,26H12V28H10zM12,26H14V28H12zM22,26H24V28H22zM26,26H28V28H26zM28,26H30V28H28zM32,26H34V28H32zM36,26H38V28H36zM42,26H44V28H42zM44,26H46V28H44zM46,26H48V28H46zM50,26H52V28H50zM54,26H56V28H54zM60,26H62V28H60zM64,26H66V28H64zM66,26H68V28H66zM68,26H70V28H68zM74,26H76V28H74zM78,26H80V28H78zM80,26H82V28H80zM8,28H10V30H8zM10,28H12V30H10zM16,28H18V30H16zM18,28H20V30H18zM20,28H22V30H20zM24,28H26V30H24zM26,28H28V30H26zM28,28H30V30H28zM38,28H40V30H38zM40,28H42V30H40zM44,28H46V30H44zM56,28H58V30H56zM68,28H70V30H68zM76,28H78V30H76zM78,28H80V30H78zM80,28H82V30H80zM10,30H12V32H10zM22,30H24V32H22zM24,30H26V32H24zM26,30H28V32H26zM28,30H30V32H28zM32,30H34V32H32zM36,30H38V32H36zM40,30H42V32H40zM42,30H44V32H42zM44,30H46V32H44zM46,30H48V32H46zM48,30H50V32H48zM50,30H52V32H50zM52,30H54V32H52zM58,30H60V32H58zM64,30H66V32H64zM70,30H72V32H70zM72,30H74V32H72zM74,30H76V32H74zM78,30H80V32H78zM80,30H82V32H80zM8,32H10V34H8zM10,32H12V34H10zM18,32H20V34H18zM20,32H22V34H20zM24,32H26V34H24zM26,32H28V34H26zM28,32H30V34H28zM30,32H32V34H30zM32,32H34V34H32zM34,32H36V34H34zM36,32H38V34H36zM38,32H40V34H38zM40,32H42V34H40zM44,32H46V34H44zM52,32H54V34H52zM56,32H58V34H56zM58,32H60V34H58zM62,32H64V34H62zM64,32H66V34H64zM66,32H68V34H66zM68,32H70V34H68zM70,32H72V34H70zM78,32H80V34H78zM80,32H82V34H80zM10,34H12V36H10zM16,34H18V36H16zM22,34H24V36H22zM34,34H36V36H34zM38,34H40V36H38zM46,34H48V36H46zM48,34H50V36H48zM50,34H52V36H50zM52,34H54V36H52zM54,34H56V36H54zM60,34H62V36H60zM68,34H70V36H68zM70,34H72V36H70zM74,34H76V36H74zM80,34H82V36H80zM14,36H16V38H14zM20,36H22V38H20zM22,36H24V38H22zM24,36H26V38H24zM36,36H38V38H36zM40,36H42V38H40zM42,36H44V38H42zM44,36H46V38H44zM46,36H48V38H46zM52,36H54V38H52zM56,36H58V38H56zM60,36H62V38H60zM64,36H66V38H64zM66,36H68V38H66zM68,36H70V38H68zM76,36H78V38H76zM80,36H82V38H80zM12,38H14V40H12zM16,38H18V40H16zM22,38H24V40H22zM24,38H26V40H24zM28,38H30V40H28zM32,38H34V40H32zM38,38H40V40H38zM50,38H52V40H50zM54,38H56V40H54zM58,38H60V40H58zM60,38H62V40H60zM64,38H66V40H64zM66,38H68V40H66zM70,38H72V40H70zM72,38H74V40H72zM78,38H80V40H78zM8,40H10V42H8zM10,40H12V42H10zM12,40H14V42H12zM14,40H16V42H14zM16,40H18V42H16zM18,40H20V42H18zM20,40H22V42H20zM32,40H34V42H32zM34,40H36V42H34zM38,40H40V42H38zM40,40H42V42H40zM42,40H44V42H42zM50,40H52V42H50zM52,40H54V42H52zM54,40H56V42H54zM56,40H58V42H56zM62,40H64V42H62zM66,40H68V42H66zM68,40H70V42H68zM74,40H76V42H74zM76,40H78V42H76zM78,40H80V42H78zM80,40H82V42H80zM10,42H12V44H10zM12,42H14V44H12zM16,42H18V44H16zM18,42H20V44H18zM22,42H24V44H22zM24,42H26V44H24zM34,42H36V44H34zM38,42H40V44H38zM44,42H46V44H44zM50,42H52V44H50zM56,42H58V44H56zM64,42H66V44H64zM68,42H70V44H68zM72,42H74V44H72zM74,42H76V44H74zM76,42H78V44H76zM80,42H82V44H80zM8,44H10V46H8zM12,44H14V46H12zM18,44H20V46H18zM20,44H22V46H20zM26,44H28V46H26zM32,44H34V46H32zM34,44H36V46H34zM36,44H38V46H36zM44,44H46V46H44zM46,44H48V46H46zM50,44H52V46H50zM54,44H56V46H54zM58,44H60V46H58zM64,44H66V46H64zM66,44H68V46H66zM68,44H70V46H68zM70,44H72V46H70zM72,44H74V46H72zM74,44H76V46H74zM76,44H78V46H76zM78,44H80V46H78zM80,44H82V46H80zM8,46H10V48H8zM10,46H12V48H10zM14,46H16V48H14zM16,46H18V48H16zM22,46H24V48H22zM28,46H30V48H28zM32,46H34V48H32zM44,46H46V48H44zM46,46H48V48H46zM48,46H50V48H48zM54,46H56V48H54zM60,46H62V48H60zM70,46H72V48H70zM72,46H74V48H72zM76,46H78V48H76zM80,46H82V48H80zM8,48H10V50H8zM10,48H12V50H10zM20,48H22V50H20zM26,48H28V50H26zM30,48H32V50H30zM32,48H34V50H32zM36,48H38V50H36zM42,48H44V50H42zM48,48H50V50H48zM54,48H56V50H54zM58,48H60V50H58zM62,48H64V50H62zM64,48H66V50H64zM68,48H70V50H68zM70,48H72V50H70zM72,48H74V50H72zM78,48H80V50H78zM8,50H10V52H8zM10,50H12V52H10zM22,50H24V52H22zM26,50H28V52H26zM28,50H30V52H28zM32,50H34V52H32zM38,50H40V52H38zM40,50H42V52H40zM44,50H46V52H44zM46,50H48V52H46zM54,50H56V52H54zM58,50H60V52H58zM66,50H68V52H66zM68,50H70V52H68zM74,50H76V52H74zM76,50H78V52H76zM80,50H82V52H80zM12,52H14V54H12zM16,52H18V54H16zM20,52H22V54H20zM24,52H26V54H24zM26,52H28V54H26zM28,52H30V54H28zM30,52H32V54H30zM42,52H44V54H42zM48,52H50V54H48zM50,52H52V54H50zM52,52H54V54H52zM60,52H62V54H60zM68,52H70V54H68zM70,52H72V54H70zM72,52H74V54H72zM74,52H76V54H74zM78,52H80V54H78zM80,52H82V54H80zM10,54H12V56H10zM12,54H14V56H12zM18,54H20V56H18zM22,54H24V56H22zM26,54H28V56H26zM28,54H30V56H28zM30,54H32V56H30zM46,54H48V56H46zM50,54H52V56H50zM56,54H58V56H56zM58,54H60V56H58zM60,54H62V56H60zM66,54H68V56H66zM72,54H74V56H72zM78,54H80V56H78zM14,56H16V58H14zM16,56H18V58H16zM18,56H20V58H18zM20,56H22V58H20zM22,56H24V58H22zM28,56H30V58H28zM30,56H32V58H30zM36,56H38V58H36zM38,56H40V58H38zM40,56H42V58H40zM42,56H44V58H42zM44,56H46V58H44zM46,56H48V58H46zM50,56H52V58H50zM52,56H54V58H52zM56,56H58V58H56zM58,56H60V58H58zM60,56H62V58H60zM62,56H64V58H62zM64,56H66V58H64zM66,56H68V58H66zM68,56H70V58H68zM74,56H76V58H74zM80,56H82V58H80zM12,58H14V60H12zM14,58H16V60H14zM16,58H18V60H16zM18,58H20V60H18zM26,58H28V60H26zM28,58H30V60H28zM30,58H32V60H30zM34,58H36V60H34zM40,58H42V60H40zM46,58H48V60H46zM48,58H50V60H48zM50,58H52V60H50zM54,58H56V60H54zM56,58H58V60H56zM66,58H68V60H66zM68,58H70V60H68zM70,58H72V60H70zM78,58H80V60H78zM80,58H82V60H80zM8,60H10V62H8zM18,60H20V62H18zM20,60H22V62H20zM24,60H26V62H24zM28,60H30V62H28zM32,60H34V62H32zM34,60H36V62H34zM36,60H38V62H36zM42,60H44V62H42zM46,60H48V62H46zM48,60H50V62H48zM56,60H58V62H56zM58,60H60V62H58zM64,60H66V62H64zM66,60H68V62H66zM68,60H70V62H68zM70,60H72V62H70zM72,60H74V62H72zM74,60H76V62H74zM76,60H78V62H76zM80,60H82V62H80zM10,62H12V64H10zM12,62H14V64H12zM14,62H16V64H14zM16,62H18V64H16zM32,62H34V64H32zM34,62H36V64H34zM38,62H40V64H38zM44,62H46V64H44zM46,62H48V64H46zM48,62H50V64H48zM56,62H58V64H56zM58,62H60V64H58zM60,62H62V64H60zM64,62H66V64H64zM68,62H70V64H68zM70,62H72V64H70zM78,62H80V64H78zM80,62H82V64H80zM8,64H10V66H8zM10,64H12V66H10zM20,64H22V66H20zM22,64H24V66H22zM24,64H26V66H24zM26,64H28V66H26zM30,64H32V66H30zM32,64H34V66H32zM40,64H42V66H40zM42,64H44V66H42zM44,64H46V66H44zM46,64H48V66H46zM48,64H50V66H48zM54,64H56V66H54zM56,64H58V66H56zM62,64H64V66H62zM64,64H66V66H64zM66,64H68V66H66zM68,64H70V66H68zM70,64H72V66H70zM72,64H74V66H72zM74,64H76V66H74zM76,64H78V66H76zM78,64H80V66H78zM24,66H26V68H24zM30,66H32V68H30zM32,66H34V68H32zM36,66H38V68H36zM40,66H42V68H40zM44,66H46V68H44zM50,66H52V68H50zM52,66H54V68H52zM54,66H56V68H54zM56,66H58V68H56zM60,66H62V68H60zM62,66H64V68H62zM64,66H66V68H64zM72,66H74V68H72zM78,66H80V68H78zM80,66H82V68H80zM8,68H10V70H8zM10,68H12V70H10zM12,68H14V70H12zM14,68H16V70H14zM16,68H18V70H16zM18,68H20V70H18zM20,68H22V70H20zM28,68H30V70H28zM30,68H32V70H30zM32,68H34V70H32zM34,68H36V70H34zM36,68H38V70H36zM40,68H42V70H40zM46,68H48V70H46zM48,68H50V70H48zM50,68H52V70H50zM60,68H62V70H60zM62,68H64V70H62zM64,68H66V70H64zM68,68H70V70H68zM72,68H74V70H72zM76,68H78V70H76zM78,68H80V70H78zM80,68H82V70H80zM8,70H10V72H8zM20,70H22V72H20zM26,70H28V72H26zM30,70H32V72H30zM36,70H38V72H36zM46,70H48V72H46zM48,70H50V72H48zM50,70H52V72H50zM52,70H54V72H52zM60,70H62V72H60zM62,70H64V72H62zM64,70H66V72H64zM72,70H74V72H72zM76,70H78V72H76zM8,72H10V74H8zM12,72H14V74H12zM14,72H16V74H14zM16,72H18V74H16zM20,72H22V74H20zM26,72H28V74H26zM28,72H30V74H28zM30,72H32V74H30zM42,72H44V74H42zM46,72H48V74H46zM50,72H52V74H50zM54,72H56V74H54zM56,72H58V74H56zM58,72H60V74H58zM64,72H66V74H64zM66,72H68V74H66zM68,72H70V74H68zM70,72H72V74H70zM72,72H74V74H72zM74,72H76V74H74zM78,72H80V74H78zM80,72H82V74H80zM8,74H10V76H8zM12,74H14V76H12zM14,74H16V76H14zM16,74H18V76H16zM20,74H22V76H20zM24,74H26V76H24zM32,74H34V76H32zM36,74H38V76H36zM40,74H42V76H40zM42,74H44V76H42zM46,74H48V76H46zM48,74H50V76H48zM54,74H56V76H54zM62,74H64V76H62zM64,74H66V76H64zM66,74H68V76H66zM70,74H72V76H70zM72,74H74V76H72zM74,74H76V76H74zM78,74H80V76H78zM80,74H82V76H80zM8,76H10V78H8zM12,76H14V78H12zM14,76H16V78H14zM16,76H18V78H16zM20,76H22V78H20zM26,76H28V78H26zM30,76H32V78H30zM36,76H38V78H36zM38,76H40V78H38zM40,76H42V78H40zM48,76H50V78H48zM66,76H68V78H66zM72,76H74V78H72zM74,76H76V78H74zM80,76H82V78H80zM8,78H10V80H8zM20,78H22V80H20zM26,78H28V80H26zM28,78H30V80H28zM32,78H34V80H32zM34,78H36V80H34zM36,78H38V80H36zM38,78H40V80H38zM44,78H46V80H44zM50,78H52V80H50zM54,78H56V80H54zM56,78H58V80H56zM58,78H60V80H58zM62,78H64V80H62zM64,78H66V80H64zM70,78H72V80H70zM72,78H74V80H72zM8,80H10V82H8zM10,80H12V82H10zM12,80H14V82H12zM14,80H16V82H14zM16,80H18V82H16zM18,80H20V82H18zM20,80H22V82H20zM26,80H28V82H26zM28,80H30V82H28zM30,80H32V82H30zM34,80H36V82H34zM36,80H38V82H36zM38,80H40V82H38zM42,80H44V82H42zM44,80H46V82H44zM46,80H48V82H46zM48,80H50V82H48zM50,80H52V82H50zM54,80H56V82H54zM56,80H58V82H56zM58,80H60V82H58zM62,80H64V82H62zM64,80H66V82H64zM66,80H68V82H66zM68,80H70V82H68zM70,80H72V82H70zM72,80H74V82H72zM78,80H80V82H78zM80,80H82V82H80z" id="qr-path" fill="#000000" fill-opacity="1" fill-rule="nonzero" stroke="none" /></g><text x="85" y="190" font-family="Arial, Helvetica, sans-serif" font-size="26px" font-weight="bold" text-anchor="middle" fill="black">Scan to Contact Vehicle Owner</text></svg>